# xmcd
#
# Track frame offsets: 
#        150
#        54200
#        91705
#        116782
#        138267
#        165432
#        188397
#        223345
#        254545
#        276502
#
# Disc length: 3971 seconds
#
# Revision: 5
# Processed by: cddbd v1.5.1PL2 Copyright (c) Steve Scherf et al.
# Submitted via: ExactAudioCopy v0.95b3
#
DISCID=8a0f810a
DTITLE=Talvin Singh - Ha
DYEAR=2001
DGENRE=Asian Underground Breaks
TTITLE0=One
TTITLE1=Mustard Fields
TTITLE2=The Beat Goes On
TTITLE3=Uphold
TTITLE4=Sway Of The Verses
TTITLE5=Dubla
TTITLE6=It's Not Over
TTITLE7=Abalonia
TTITLE8=See Breeze
TTITLE9=Silver Flowers
EXTD=
EXTT0=
EXTT1=
EXTT2=
EXTT3=
EXTT4=
EXTT5=
EXTT6=
EXTT7=
EXTT8=
EXTT9=
PLAYORDER=
